<svg width="1200" height="360" viewBox="0 0 1200 360" fill="none" xmlns="http://www.w3.org/2000/svg">
  <rect width="1200" height="360" rx="28" fill="#0B1020"/>
  <circle cx="1010" cy="70" r="220" fill="#2563EB" opacity="0.18"/>
  <circle cx="160" cy="330" r="220" fill="#14B8A6" opacity="0.14"/>
  <path d="M108 240 C220 120, 348 280, 460 160 S690 80, 820 210 S1010 240, 1090 130" stroke="#38BDF8" stroke-width="4" opacity="0.38" fill="none"/>
  <g opacity="0.95">
    <circle cx="210" cy="172" r="18" fill="#38BDF8"/>
    <circle cx="390" cy="206" r="18" fill="#22C55E"/>
    <circle cx="570" cy="132" r="18" fill="#F59E0B"/>
    <circle cx="750" cy="178" r="18" fill="#A78BFA"/>
    <circle cx="930" cy="216" r="18" fill="#F43F5E"/>
    <line x1="228" y1="176" x2="372" y2="202" stroke="#CBD5E1" stroke-width="3" opacity="0.55"/>
    <line x1="408" y1="199" x2="552" y2="139" stroke="#CBD5E1" stroke-width="3" opacity="0.55"/>
    <line x1="588" y1="137" x2="732" y2="173" stroke="#CBD5E1" stroke-width="3" opacity="0.55"/>
    <line x1="768" y1="182" x2="912" y2="212" stroke="#CBD5E1" stroke-width="3" opacity="0.55"/>
  </g>
  <text x="86" y="104" fill="#F8FAFC" font-family="Arial, Helvetica, sans-serif" font-size="56" font-weight="800">GuardGraph</text>
  <text x="90" y="152" fill="#CBD5E1" font-family="Arial, Helvetica, sans-serif" font-size="24">Structural AppSec review for FastAPI</text>
  <text x="90" y="198" fill="#94A3B8" font-family="Arial, Helvetica, sans-serif" font-size="20">Detect missing auth, ownership, validation, and sensitive-action boundaries.</text>
  <rect x="88" y="238" width="178" height="42" rx="21" fill="#1E293B" stroke="#38BDF8" opacity="0.95"/>
  <text x="113" y="266" fill="#E0F2FE" font-family="Arial, Helvetica, sans-serif" font-size="16" font-weight="700">FastAPI + SARIF</text>
  <rect x="286" y="238" width="206" height="42" rx="21" fill="#1E293B" stroke="#22C55E" opacity="0.95"/>
  <text x="313" y="266" fill="#DCFCE7" font-family="Arial, Helvetica, sans-serif" font-size="16" font-weight="700">OWASP / CWE mapped</text>
  <rect x="512" y="238" width="220" height="42" rx="21" fill="#1E293B" stroke="#A78BFA" opacity="0.95"/>
  <text x="539" y="266" fill="#F3E8FF" font-family="Arial, Helvetica, sans-serif" font-size="16" font-weight="700">GitHub Action ready</text>
</svg>
